<svg xmlns="http://www.w3.org/2000/svg" viewBox="0 0 1800 600" width="1800" height="600">
  <defs>
    <style>
      .line{
        fill:none;
        stroke:#6f554c;
        stroke-width:2;
        stroke-linecap:round;
        stroke-linejoin:round;
        opacity:.92;
      }
      .hair{
        fill:none;
        stroke:#6f554c;
        stroke-width:2;
        stroke-linecap:round;
        stroke-linejoin:round;
        opacity:.72;
      }
      .fine{
        fill:none;
        stroke:#6f554c;
        stroke-width:1.6;
        stroke-linecap:round;
        stroke-linejoin:round;
        opacity:.62;
      }
      .dot{ fill:#6f554c; opacity:.38; }
      .leaf{
        fill:none;
        stroke:#6f554c;
        stroke-width:1.6;
        stroke-linecap:round;
        stroke-linejoin:round;
        opacity:.55;
      }
    </style>
  </defs>

  <!-- Face profile -->
  <path class="line" d="M230 145
    C210 165, 198 190, 198 215
    C198 265, 225 302, 260 328
    C290 351, 317 366, 340 392
    C355 410, 360 430, 355 456" />
  <path class="line" d="M240 170
    C270 160, 295 160, 320 172
    C345 185, 360 205, 366 230
    C372 257, 366 280, 350 300" />
  <path class="fine" d="M292 220 C308 214, 324 214, 339 222" />
  <path class="fine" d="M308 255 C318 260, 330 261, 340 256" />
  <path class="fine" d="M304 292 C320 302, 336 302, 350 292" />
  <path class="fine" d="M285 330 C300 348, 320 360, 343 366" />

  <!-- Ear -->
  <path class="fine" d="M356 282
    C374 286, 385 302, 382 322
    C379 342, 362 352, 346 345
    C336 341, 332 332, 336 322" />

  <!-- Hairline -->
  <path class="line" d="M270 155
    C330 125, 420 128, 485 175
    C520 200, 545 232, 560 270" />
  <path class="fine" d="M305 165
    C350 142, 420 145, 468 178" />
  <path class="fine" d="M350 150
    C410 132, 470 150, 515 192" />

  <!-- Flowing hair strands -->
  <path class="hair" d="M520 190
    C720 130, 900 155, 1100 220
    C1280 280, 1450 280, 1700 225" />
  <path class="hair" d="M520 235
    C740 190, 930 220, 1120 285
    C1320 350, 1490 352, 1710 300" />
  <path class="hair" d="M520 275
    C760 255, 960 295, 1145 365
    C1340 440, 1510 440, 1715 395" />
  <path class="fine" d="M520 310
    C765 315, 965 360, 1160 435
    C1340 505, 1520 510, 1715 468" />
  <path class="fine" d="M520 345
    C760 370, 955 420, 1140 495
    C1320 570, 1505 580, 1710 548" />

  <!-- Sub-strands for depth -->
  <path class="fine" d="M600 205
    C820 165, 980 185, 1180 250
    C1370 312, 1530 310, 1690 270" />
  <path class="fine" d="M610 255
    C840 235, 1010 265, 1200 330
    C1385 392, 1540 392, 1700 350" />

  <!-- Leaves -->
  <path class="leaf" d="M1285 250 C1302 238, 1322 238, 1337 252 C1320 268, 1302 270, 1285 250 Z" />
  <path class="leaf" d="M1480 312 C1496 300, 1516 300, 1531 314 C1514 330, 1496 332, 1480 312 Z" />
  <path class="leaf" d="M1420 430 C1436 418, 1456 418, 1471 432 C1454 448, 1436 450, 1420 430 Z" />
  <path class="leaf" d="M1600 240 C1616 228, 1636 228, 1651 242 C1634 258, 1616 260, 1600 240 Z" />

  <!-- Dots -->
  <circle class="dot" cx="1188" cy="292" r="2.6"/>
  <circle class="dot" cx="1215" cy="312" r="1.9"/>
  <circle class="dot" cx="1246" cy="338" r="2.2"/>
  <circle class="dot" cx="1365" cy="352" r="1.8"/>
  <circle class="dot" cx="1528" cy="410" r="2.4"/>
  <circle class="dot" cx="1562" cy="438" r="1.7"/>
</svg>
